<svg aria-hidden="true" style="position: absolute; width: 0; height: 0; overflow: hidden;" version="1.1" xmlns="http://www.w3.org/2000/svg" xmlns:xlink="http://www.w3.org/1999/xlink">
<defs>
<symbol id="icon-ALARM" viewBox="0 0 32 32">
<path d="M29.873 10.826c-1.49-3.479-4.279-6.268-7.757-7.758 0.941-0.74 2.125-1.186 3.415-1.186 3.053 0 5.529 2.475 5.529 5.529 0 1.29-0.445 2.474-1.186 3.415zM29.647 16.941c0 3.626-1.423 6.911-3.729 9.355 0 0 1.909 1.909 1.909 1.909 0.253 0.253 0.409 0.602 0.409 0.987 0 0.771-0.625 1.396-1.396 1.396-0.386 0-0.734-0.156-0.987-0.409 0 0-2.050-2.050-2.050-2.050-2.212 1.546-4.899 2.459-7.802 2.459-2.898 0-5.579-0.909-7.789-2.45 0 0-2.036 2.036-2.036 2.036-0.256 0.255-0.608 0.414-0.998 0.414-0.78 0-1.412-0.632-1.412-1.412 0-0.389 0.158-0.743 0.413-0.998 0 0 1.894-1.893 1.894-1.893-2.3-2.443-3.719-5.724-3.719-9.344 0-7.537 6.11-13.647 13.647-13.647s13.647 6.11 13.647 13.647zM16 6.117c-5.978 0-10.824 4.846-10.824 10.824s4.846 10.824 10.824 10.824c5.978 0 10.823-4.846 10.823-10.824s-4.846-10.824-10.823-10.824zM21.647 18.353c0 0-5.647 0-5.647 0-0.78 0-1.412-0.632-1.412-1.412 0 0 0-7.53 0-7.53 0-0.779 0.632-1.411 1.412-1.411s1.412 0.632 1.412 1.411c0 0 0 6.118 0 6.118s4.235 0 4.235 0c0.78 0 1.412 0.632 1.412 1.412s-0.632 1.412-1.412 1.412zM2.153 11.017c-0.757-0.96-1.212-2.17-1.212-3.488 0-3.119 2.528-5.647 5.647-5.647 1.318 0 2.527 0.455 3.488 1.211-3.553 1.522-6.401 4.371-7.923 7.923z"></path>
</symbol>
<symbol id="icon-BOOK" viewBox="0 0 32 32">
<path d="M30.23 25.499c0 0-13.23 5.475-13.23 5.475-0.166 0.072-0.35 0.112-0.543 0.112s-0.376-0.040-0.543-0.112c0 0-13.231-5.475-13.231-5.475-0.502-0.204-0.855-0.696-0.855-1.27 0 0 0-21.029 0-21.029 0-0.758 0.614-1.371 1.371-1.371 0.186 0 0.363 0.037 0.524 0.104 0 0 0 0 0 0s0.002 0.001 0.002 0.001c0.004 0.001 0.008 0.003 0.012 0.005 0 0 12.718 5.263 12.718 5.263s12.718-5.263 12.718-5.263c0.004-0.002 0.008-0.004 0.012-0.005 0 0 0.002-0.001 0.002-0.001s0 0 0 0c0.162-0.067 0.338-0.104 0.524-0.104 0.757 0 1.371 0.614 1.371 1.371 0 0 0 21.029 0 21.029 0 0.574-0.354 1.067-0.855 1.27zM15.086 9.602c0 0-10.514-4.351-10.514-4.351s0 18.060 0 18.060c0 0 10.514 4.351 10.514 4.351s0-18.060 0-18.060zM28.343 5.251c0 0-10.514 4.351-10.514 4.351s0 18.060 0 18.060c0 0 10.514-4.351 10.514-4.351s0-18.060 0-18.060zM20.004 11.551c0 0 5.029-2.286 5.029-2.286s0 0 0 0c0.173-0.079 0.365-0.123 0.567-0.123 0.757 0 1.372 0.614 1.372 1.372 0 0.555-0.33 1.033-0.804 1.248 0 0 0 0 0 0s-5.029 2.286-5.029 2.286c0 0 0 0 0 0-0.173 0.079-0.365 0.123-0.567 0.123-0.757 0-1.372-0.614-1.372-1.372 0-0.555 0.33-1.033 0.804-1.248zM20.004 16.58c0 0 0 0 0 0s5.029-2.286 5.029-2.286c0 0 0 0 0 0 0.173-0.078 0.365-0.123 0.567-0.123 0.757 0 1.372 0.614 1.372 1.371 0 0.555-0.33 1.033-0.804 1.249 0 0-5.029 2.286-5.029 2.286s0-0.001 0-0.001c-0.173 0.079-0.365 0.123-0.567 0.123-0.757 0-1.372-0.614-1.372-1.371 0-0.555 0.33-1.033 0.804-1.249zM20.004 21.608c0 0 0 0 0 0s5.029-2.286 5.029-2.286c0 0 0 0 0 0 0.173-0.079 0.365-0.123 0.567-0.123 0.757 0 1.372 0.614 1.372 1.372 0 0.555-0.33 1.033-0.804 1.248 0 0 0 0 0 0s-5.029 2.286-5.029 2.286c0 0 0 0 0 0-0.173 0.079-0.365 0.123-0.567 0.123-0.757 0-1.372-0.614-1.372-1.372 0-0.555 0.33-1.033 0.804-1.248zM7.314 9.142c0.202 0 0.394 0.044 0.567 0.123 0 0 0 0 0 0s5.029 2.286 5.029 2.286c0 0 0 0 0 0 0.474 0.216 0.804 0.694 0.804 1.248 0 0.758-0.614 1.372-1.371 1.372-0.202 0-0.394-0.044-0.567-0.123 0 0 0 0 0 0s-5.029-2.286-5.029-2.286c0 0 0 0 0 0-0.474-0.216-0.804-0.694-0.804-1.248 0-0.757 0.614-1.372 1.372-1.372zM7.314 14.171c0.202 0 0.394 0.044 0.567 0.123 0 0 0 0 0 0s5.029 2.286 5.029 2.286c0 0 0 0 0 0 0.474 0.216 0.804 0.693 0.804 1.249 0 0.757-0.614 1.371-1.371 1.371-0.202 0-0.394-0.044-0.567-0.123 0 0 0 0.001 0 0.001s-5.029-2.286-5.029-2.286c0 0 0 0 0 0-0.474-0.216-0.804-0.693-0.804-1.249 0-0.757 0.614-1.371 1.372-1.371zM7.314 19.2c0.202 0 0.394 0.044 0.567 0.123 0 0 0 0 0 0s5.029 2.286 5.029 2.286c0 0 0 0 0 0 0.474 0.216 0.804 0.694 0.804 1.248 0 0.757-0.614 1.372-1.371 1.372-0.202 0-0.394-0.044-0.567-0.123 0 0 0 0 0 0s-5.029-2.286-5.029-2.286c0 0 0 0 0 0-0.474-0.216-0.804-0.694-0.804-1.248 0-0.757 0.614-1.372 1.372-1.372z"></path>
</symbol>
<symbol id="icon-COMPUTER" viewBox="0 0 35 32">
<path d="M32 25.806c0 0-7.742 0-7.742 0s-2.065 0-2.065 0c0 0 0 2.581 0 2.581s2.065 2.065 2.065 2.065c0 0 0 0.516 0 0.516s-13.419 0-13.419 0c0 0 0-0.516 0-0.516s2.065-2.065 2.065-2.065c0 0 0-2.581 0-2.581s-2.064 0-2.064 0c0 0-7.742 0-7.742 0-0.855 0-1.548-0.693-1.548-1.549 0 0 0-20.645 0-20.645 0-0.855 0.693-1.548 1.548-1.548 0 0 28.903 0 28.903 0 0.855 0 1.548 0.693 1.548 1.548 0 0 0 20.645 0 20.645 0 0.855-0.693 1.549-1.548 1.549zM31.484 4.129c0 0-27.871 0-27.871 0s0 17.548 0 17.548c0 0 27.871 0 27.871 0s0-17.548 0-17.548zM14.452 11.354c0.428 0 0.815 0.174 1.095 0.453 0 0 0 0 0 0s0.97 0.97 0.97 0.97c0 0 3.034-3.034 3.034-3.034s0 0 0 0c0.28-0.281 0.667-0.453 1.095-0.453 0.855 0 1.548 0.693 1.548 1.548 0 0.428-0.173 0.815-0.453 1.095 0 0 0 0 0 0s-4.129 4.129-4.129 4.129c0 0 0 0 0 0-0.28 0.28-0.667 0.454-1.095 0.454s-0.815-0.174-1.095-0.454c0 0 0 0 0 0s-2.064-2.065-2.064-2.065c0 0 0 0 0 0-0.28-0.28-0.454-0.668-0.454-1.094 0-0.855 0.693-1.549 1.548-1.549z"></path>
</symbol>
<symbol id="icon-facebook" viewBox="0 0 17 32">
<path d="M14.443 2.426c0 1.629 0 4.547 0 4.547s-3.352-0.334-4.191 0.95c-0.459 0.702-0.187 2.758-0.227 4.234 1.463 0 2.983 0 4.446 0-0.376 1.726-0.645 2.896-0.921 4.39-1.266 0-3.549 0-3.549 0s0 14.128 0 14.128c0 0-4.19 0-6.159 0 0.001-4.355-0.001-9.437 0-14.073-0.957 0-1.664 0-2.621 0 0-1.629 0-2.816 0-4.446 0.928 0 1.663 0 2.592 0 0.133-3.25 0.183-6.471 1.797-8.11 1.815-1.843 3.545-1.622 8.834-1.622z"></path>
</symbol>
<symbol id="icon-FRAME" viewBox="0 0 33 32">
<path d="M29.714 31.086c0 0-26.514 0-26.514 0-0.758 0-1.371-0.614-1.371-1.372 0 0 0-26.514 0-26.514 0-0.758 0.614-1.371 1.371-1.371 0 0 26.514 0 26.514 0 0.757 0 1.371 0.614 1.371 1.371 0 0 0 26.514 0 26.514 0 0.757-0.614 1.372-1.371 1.372zM28.343 4.571c0 0-23.771 0-23.771 0s0 23.771 0 23.771c0 0 23.771 0 23.771 0s0-23.771 0-23.771zM7.771 5.942c0 0 5.028 0 5.028 0s0 0 0 0c0.757 0 1.371 0.614 1.371 1.372s-0.614 1.371-1.371 1.371c0 0 0 0 0 0s-4.114 0-4.114 0c0 0 0 4.114 0 4.114s0 0 0 0c0 0.758-0.614 1.372-1.372 1.372s-1.371-0.614-1.371-1.372c0 0 0 0 0 0s0-5.028 0-5.028c0 0 0 0 0 0s0-1.829 0-1.829c0 0 1.829 0 1.829 0s0 0 0 0zM5.943 20.114c0 0 0 0 0 0 0-0.757 0.614-1.372 1.371-1.372s1.371 0.614 1.371 1.372c0 0 0 0 0 0s0 4.114 0 4.114c0 0 4.114 0 4.114 0s0 0.001 0 0.001c0.757 0 1.371 0.614 1.371 1.371s-0.614 1.372-1.371 1.372c0 0-0 0-0 0s-5.028 0-5.028 0c0 0 0 0 0 0s-1.829 0-1.829 0c0 0 0-1.829 0-1.829s0 0 0 0 0-5.028 0-5.028zM20.114 5.942c0 0 0 0 0 0s5.029 0 5.029 0c0 0 0 0 0 0s1.829 0 1.829 0c0 0 0 1.829 0 1.829s0 0 0 0 0 5.028 0 5.028c0 0 0 0 0 0 0 0.758-0.614 1.372-1.371 1.372s-1.372-0.614-1.372-1.372c0 0 0 0 0 0s0-4.114 0-4.114c0 0-4.114 0-4.114 0s0 0 0 0c-0.757 0-1.371-0.614-1.371-1.371s0.614-1.372 1.371-1.372zM20.114 24.228c0 0 0-0.001 0-0.001s4.114 0 4.114 0c0 0 0-4.114 0-4.114s0 0 0 0c0-0.757 0.614-1.372 1.372-1.372s1.371 0.614 1.371 1.372c0 0 0 0 0 0s0 5.028 0 5.028c0 0 0 0 0 0s0 1.829 0 1.829c0 0-1.829 0-1.829 0s0 0 0 0-5.029 0-5.029 0c0 0-0 0-0 0-0.757 0-1.371-0.614-1.371-1.372s0.614-1.371 1.371-1.371z"></path>
</symbol>
<symbol id="icon-HOME" viewBox="0 0 34 32">
<path d="M32.97 16.969c0 0.804-0.651 1.454-1.455 1.454-0.383 0-0.729-0.151-0.989-0.393 0 0-0.004 0.003-0.004 0.003s-13.031-13.031-13.031-13.031c0 0 0-0.001 0-0.001s-0.037-0.035-0.037-0.035c0 0 0-0.001 0-0.001s-13.039 13.039-13.039 13.039c0 0-0.001-0.001-0.001-0.001-0.263 0.259-0.623 0.418-1.021 0.418-0.803 0-1.455-0.651-1.455-1.454 0-0.412 0.172-0.784 0.447-1.048 0 0 14.020-14.020 14.020-14.020 0.265-0.275 0.636-0.447 1.048-0.447 0 0 0 0 0 0s0 0 0 0 0 0 0.001 0c0.026 0 0.051 0.001 0.077 0.002 0.004 0 0.008 0.001 0.012 0.001 0.022 0.002 0.044 0.003 0.065 0.006 0.001 0 0.003 0 0.004 0.001 0.356 0.039 0.673 0.206 0.905 0.454 0 0 0.001-0.001 0.001-0.001s5.723 5.723 5.723 5.723c0 0 0-1.337 0-1.337 0-0.803 0.651-1.455 1.455-1.455s1.455 0.651 1.455 1.455c0 0 0 4.246 0 4.246s5.428 5.428 5.428 5.428c0 0-0.003 0.004-0.003 0.004 0.242 0.259 0.393 0.606 0.393 0.989zM30.061 19.394c0 0 0 4.364 0 4.364s0 1.939 0 1.939c0 0 0 3.879 0 3.879 0 0.803-0.651 1.455-1.455 1.455 0 0-2.909 0-2.909 0s0-11.637 0-11.637c0 0-5.818 0-5.818 0s0 11.637 0 11.637c0 0-13.576 0-13.576 0-0.803 0-1.455-0.651-1.455-1.455 0 0 0-3.879 0-3.879s0-1.939 0-1.939c0 0 0-4.364 0-4.364s12.606-12.606 12.606-12.606c0 0 12.606 12.606 12.606 12.606zM15.030 19.394c0 0-5.818 0-5.818 0s0 5.819 0 5.819c0 0 5.818 0 5.818 0s0-5.819 0-5.819z"></path>
</symbol>
<symbol id="icon-instagram" viewBox="0 0 32 32">
<path d="M27.086 30.628c0 0-21.943 0-21.943 0-2.020 0-3.657-1.638-3.657-3.657 0 0 0-21.943 0-21.943 0-2.020 1.637-3.657 3.657-3.657 0 0 21.943 0 21.943 0 2.020 0 3.657 1.638 3.657 3.657 0 0 0 21.943 0 21.943 0 2.020-1.637 3.657-3.657 3.657zM16.114 10.331c-2.281 0-4.241 1.35-5.141 3.292 0 0-0.005 0-0.005 0-0.009 0.021-0.016 0.042-0.025 0.063-0.054 0.12-0.101 0.243-0.147 0.367-0.022 0.060-0.045 0.118-0.065 0.178-0.042 0.127-0.076 0.258-0.109 0.388-0.015 0.061-0.034 0.121-0.047 0.183-0.030 0.138-0.050 0.279-0.070 0.42-0.008 0.057-0.020 0.113-0.026 0.171-0.021 0.2-0.033 0.402-0.033 0.607 0 3.131 2.538 5.668 5.669 5.668s5.669-2.538 5.669-5.668c0-0.205-0.012-0.407-0.033-0.607-0.006-0.058-0.018-0.114-0.026-0.171-0.020-0.142-0.040-0.282-0.070-0.42-0.013-0.062-0.032-0.122-0.047-0.183-0.033-0.131-0.067-0.261-0.109-0.388-0.020-0.060-0.043-0.118-0.065-0.178-0.046-0.124-0.093-0.247-0.147-0.367-0.009-0.020-0.016-0.042-0.025-0.063 0 0-0.005 0-0.005 0-0.9-1.941-2.86-3.292-5.141-3.292zM27.451 6.125c0-0.808-0.655-1.463-1.463-1.463 0 0-2.926 0-2.926 0-0.808 0-1.463 0.655-1.463 1.463 0 0 0 2.926 0 2.926 0 0.808 0.655 1.463 1.463 1.463 0 0 2.926 0 2.926 0 0.808 0 1.463-0.655 1.463-1.463 0 0 0-2.926 0-2.926zM27.451 13.622c0 0-2.697 0-2.697 0 0.208 0.757 0.32 1.555 0.32 2.377 0 4.949-4.012 8.96-8.96 8.96s-8.96-4.011-8.96-8.96c0-0.823 0.112-1.62 0.32-2.377 0 0-2.697 0-2.697 0s0 12.251 0 12.251c0 0.808 0.655 1.463 1.463 1.463 0 0 19.749 0 19.749 0 0.808 0 1.463-0.655 1.463-1.463 0 0 0-12.251 0-12.251z"></path>
</symbol>
<symbol id="icon-LINE-GRAPH" viewBox="0 0 32 32">
<path d="M28.8 31.085c0 0-26.514 0-26.514 0-0.757 0-1.371-0.614-1.371-1.372 0 0 0-26.514 0-26.514 0-0.757 0.614-1.371 1.371-1.371 0 0 26.514 0 26.514 0 0.757 0 1.372 0.614 1.372 1.371 0 0 0 26.514 0 26.514 0 0.757-0.614 1.372-1.372 1.372zM27.429 4.571c0 0-23.771 0-23.771 0s0 23.772 0 23.772c0 0 23.771 0 23.771 0s0-23.772 0-23.772zM5.683 16.675c0 0-0.001-0.001-0.001-0.001s3.657-2.286 3.657-2.286c0 0 0.001 0.001 0.001 0.001 0.209-0.129 0.454-0.203 0.717-0.203 0.285 0 0.549 0.087 0.768 0.235 0 0 0.005-0.008 0.005-0.008s6.062 4.041 6.062 4.041c0 0 6.984-4.929 6.984-4.929 0.227-0.166 0.507-0.264 0.809-0.264 0.757 0 1.371 0.614 1.371 1.371 0 0.457-0.224 0.862-0.568 1.111 0 0 0 0.001 0 0.001s-7.771 5.486-7.771 5.486c0 0-0-0.001-0-0.001-0.226 0.164-0.503 0.26-0.803 0.26-0.293 0-0.565-0.092-0.788-0.249 0 0-6.086-4.057-6.086-4.057s-2.867 1.792-2.867 1.792c-0.22 0.151-0.487 0.24-0.774 0.24-0.757 0-1.371-0.614-1.371-1.372 0-0.494 0.262-0.928 0.654-1.169z"></path>
</symbol>
<symbol id="icon-pinterest" viewBox="0 0 25 32">
<path d="M11.091 19.701c-0.231 0.919-0.463 1.883-0.704 2.825-0.238 0.929-0.446 1.871-0.792 2.725-0.573 1.414-1.3 2.78-2.255 3.886-0.634 0.736-0.499 0.442-0.69 0.402-0.146-0.030-0.158-0.173-0.187-0.38-0.155-1.124-0.050-2.422 0.008-3.685 0.066-1.438 0.368-2.635 0.649-3.83 0.535-2.277 1.044-4.51 1.584-6.801 0.036-0.152 0.133-0.404 0.099-0.491-0.244-0.637-0.403-1.208-0.473-1.876-0.080-0.767-0.019-1.483 0.154-2.144 0.305-1.167 1.007-2.202 2.090-2.58 0.688-0.239 1.451-0.131 1.914 0.146 0.477 0.285 0.804 0.735 0.957 1.374 0.163 0.679 0.043 1.491-0.088 2.088-0.295 1.344-0.682 2.354-1.034 3.652-0.175 0.644-0.372 1.305-0.209 1.999 0.15 0.638 0.482 1.077 0.935 1.407 0.469 0.342 1.025 0.529 1.793 0.503 1.355-0.047 2.296-0.914 2.926-1.731 1.006-1.307 1.616-3.072 1.848-5.171 0.075-0.677 0.129-1.455 0.077-2.223-0.096-1.417-0.54-2.556-1.243-3.439-0.669-0.841-1.618-1.511-2.772-1.888-1.144-0.374-2.729-0.498-4.136-0.257-2.557 0.438-4.36 1.891-5.423 3.898-0.556 1.050-0.924 2.259-0.924 3.763 0 1.16 0.286 2.058 0.748 2.758 0.146 0.222 0.362 0.405 0.506 0.659 0.204 0.36-0.031 0.895-0.132 1.284-0.121 0.469-0.134 1.117-0.682 1.128-0.227 0.004-0.512-0.162-0.704-0.268-1.439-0.796-2.314-2.243-2.673-4.121-0.218-1.14-0.217-2.471 0-3.573 0.21-1.066 0.601-2.050 1.034-2.848 0.898-1.658 2.215-2.984 3.817-3.931 1.232-0.729 2.621-1.239 4.311-1.485 0.561-0.082 1.141-0.116 1.771-0.145 1.84-0.087 3.514 0.33 4.774 0.893 1.33 0.595 2.391 1.386 3.288 2.368 0.924 1.010 1.597 2.184 2.024 3.652 0.222 0.763 0.439 1.58 0.439 2.524 0 0.947-0.2 1.78-0.34 2.613-0.523 3.121-2.007 5.673-4.235 7.125-0.54 0.352-1.194 0.677-1.936 0.893-0.736 0.214-1.576 0.375-2.475 0.312-0.873-0.060-1.588-0.297-2.189-0.637-0.596-0.337-1.097-0.749-1.452-1.373z"></path>
</symbol>
<symbol id="icon-twitter" viewBox="0 0 37 32">
<path d="M24.683 2.135c2.713-0.049 4.156 0.94 5.535 2.197 1.171-0.1 2.692-0.754 3.588-1.21 0.29-0.158 0.581-0.318 0.871-0.476-0.512 1.383-1.206 2.465-2.272 3.287-0.237 0.182-0.472 0.429-0.769 0.545 0 0.005 0 0.011 0 0.017 1.52-0.015 2.773-0.701 3.963-1.073 0 0.006 0 0.011 0 0.018-0.625 0.993-1.472 2.002-2.375 2.725-0.364 0.289-0.729 0.579-1.093 0.868 0.020 1.61-0.024 3.145-0.325 4.498-1.749 7.86-6.383 13.196-13.718 15.482-2.634 0.821-6.891 1.158-9.909 0.409-1.497-0.371-2.848-0.791-4.117-1.345-0.705-0.308-1.357-0.642-1.982-1.023-0.205-0.125-0.41-0.249-0.615-0.374 0.681 0.021 1.477 0.208 2.238 0.085 0.688-0.111 1.364-0.082 1.999-0.221 1.584-0.348 2.991-0.808 4.203-1.517 0.587-0.344 1.479-0.747 1.896-1.243-0.787 0.014-1.5-0.169-2.084-0.375-2.265-0.8-3.584-2.271-4.442-4.48 0.686 0.076 2.664 0.254 3.126-0.136-0.864-0.048-1.695-0.548-2.289-0.92-1.822-1.14-3.308-3.052-3.297-5.995 0.239 0.114 0.478 0.227 0.717 0.34 0.458 0.193 0.923 0.296 1.469 0.409 0.231 0.048 0.692 0.183 0.957 0.084-0.011 0-0.023 0-0.034 0-0.353-0.409-0.927-0.683-1.281-1.124-1.169-1.453-2.265-3.689-1.572-6.353 0.176-0.676 0.455-1.272 0.752-1.822 0.011 0.006 0.023 0.011 0.034 0.017 0.136 0.285 0.44 0.494 0.632 0.733 0.597 0.74 1.334 1.406 2.084 1.992 2.557 2 4.86 3.229 8.559 4.139 0.938 0.231 2.023 0.408 3.143 0.409-0.315-0.917-0.214-2.4 0.034-3.288 0.623-2.231 1.977-3.839 3.963-4.7 0.475-0.207 1.002-0.357 1.555-0.478 0.285-0.034 0.569-0.068 0.854-0.102z"></path>
</symbol>
<symbol id="icon-cart" viewBox="0 0 20 17">
<path d=" M 18.725997924804688 4.662798166275024 C 18.725997924804688 4.662798166275024 18.727256774902344 4.663402318954468 18.727256774902344 4.663402318954468 C 18.727256774902344 4.663402318954468 16.252357482910156 10.163155198097229 16.252357482910156 10.163155198097229 C 16.252357482910156 10.163155198097229 16.252243041992188 10.163155198097229 16.252243041992188 10.163155198097229 C 16.13013458251953 10.434268712997437 15.866119384765625 10.62744653224945 15.554840087890625 10.647685647010803 C 15.554840087890625 10.647685647010803 15.554840087890625 10.647685647010803 15.554840087890625 10.647685647010803 C 15.554840087890625 10.647685647010803 8.427230834960938 11.122700691223145 8.427230834960938 11.122700691223145 C 8.427230834960938 11.122700691223145 8.8389892578125 12.299288034439087 8.8389892578125 12.299288034439087 C 8.8389892578125 12.299288034439087 16.60002899169922 12.299288034439087 16.60002899169922 12.299288034439087 C 17.511207580566406 12.299288034439087 18.249923706054688 13.038468837738037 18.249923706054688 13.949833154678345 C 18.249923706054688 14.861197471618652 17.511207580566406 15.599623084068298 16.60002899169922 15.599623084068298 C 15.688735961914062 15.599623084068298 14.949905395507812 14.861197471618652 14.949905395507812 13.949833154678345 C 14.949905395507812 13.949833154678345 7.249977111816406 13.949833154678345 7.249977111816406 13.949833154678345 C 7.249977111816406 14.861197471618652 6.511260986328125 15.599623084068298 5.599967956542969 15.599623084068298 C 4.6886749267578125 15.599623084068298 3.9499588012695312 14.861197471618652 3.9499588012695312 13.949833154678345 C 3.9499588012695312 13.038468837738037 4.6886749267578125 12.299288034439087 5.599967956542969 12.299288034439087 C 5.599967956542969 12.299288034439087 7.090904235839844 12.299288034439087 7.090904235839844 12.299288034439087 C 7.090904235839844 12.299288034439087 3.9147109985351562 3.2246127128601074 3.9147109985351562 3.2246127128601074 C 3.9147109985351562 3.2246127128601074 2.0249481201171875 3.2246127128601074 2.0249481201171875 3.2246127128601074 C 1.5693588256835938 3.2246127128601074 1.1999435424804688 2.8550223112106323 1.1999435424804688 2.3996422290802 C 1.1999435424804688 1.944262146949768 1.5693588256835938 1.574671745300293 2.0249481201171875 1.574671745300293 C 2.0249481201171875 1.574671745300293 4.499961853027344 1.574671745300293 4.499961853027344 1.574671745300293 C 4.8598785400390625 1.574671745300293 5.1629180908203125 1.8065153360366821 5.2755279541015625 2.128377676010132 C 5.2755279541015625 2.128377676010132 5.278617858886719 2.127169370651245 5.278617858886719 2.127169370651245 C 5.278617858886719 2.127169370651245 5.759040832519531 3.4999552965164185 5.759040832519531 3.4999552965164185 C 5.759040832519531 3.4999552965164185 17.97492218017578 3.4999552965164185 17.97492218017578 3.4999552965164185 C 18.430625915527344 3.4999552965164185 18.7999267578125 3.86894154548645 18.7999267578125 4.324925780296326 C 18.7999267578125 4.445303201675415 18.77257537841797 4.559034943580627 18.725997924804688 4.662798166275024 Z M 6.336509704589844 5.149745225906372 C 6.336509704589844 5.149745225906372 7.861663818359375 9.50689435005188 7.861663818359375 9.50689435005188 C 7.861663818359375 9.50689435005188 14.950935363769531 9.034144878387451 14.950935363769531 9.034144878387451 C 14.950935363769531 9.034144878387451 16.699020385742188 5.149745225906372 16.699020385742188 5.149745225906372 C 16.699020385742188 5.149745225906372 6.336509704589844 5.149745225906372 6.336509704589844 5.149745225906372 Z"></path>
</symbol>
<symbol id="icon-search" viewBox="0 0 20 17">
<path d=" M 18.316757202148438 15.982783198356628 C 18.615333557128906 16.28138566017151 18.7999267578125 16.693870902061462 18.7999267578125 17.149855136871338 C 18.7999267578125 18.061219453811646 18.06121063232422 18.79964506626129 17.15003204345703 18.79964506626129 C 16.69432830810547 18.79964506626129 16.281768798828125 18.614925384521484 15.983192443847656 18.316322922706604 C 15.983192443847656 18.316322922706604 15.983192443847656 18.316322922706604 15.983192443847656 18.316322922706604 C 15.983192443847656 18.316322922706604 11.147491455078125 13.480533838272095 11.147491455078125 13.480533838272095 C 10.165130615234375 14.061124563217163 9.023468017578125 14.399601101875305 7.799980163574219 14.399601101875305 C 4.1549224853515625 14.399601101875305 1.1999435424804688 11.444992423057556 1.1999435424804688 7.7996861934661865 C 1.1999435424804688 4.154833078384399 4.1549224853515625 1.199620246887207 7.799980163574219 1.199620246887207 C 11.445037841796875 1.199620246887207 14.39990234375 4.154833078384399 14.39990234375 7.7996861934661865 C 14.39990234375 9.02324640750885 14.0611572265625 10.164792895317078 13.480941772460938 11.14699411392212 C 13.480941772460938 11.14699411392212 18.316757202148438 15.982783198356628 18.316757202148438 15.982783198356628 C 18.316757202148438 15.982783198356628 18.316757202148438 15.982783198356628 18.316757202148438 15.982783198356628 Z M 7.799980163574219 2.8494101762771606 C 5.06610107421875 2.8494101762771606 2.8499526977539062 5.065593242645264 2.8499526977539062 7.7996861934661865 C 2.8499526977539062 10.533628106117249 5.06610107421875 12.749811172485352 7.799980163574219 12.749811172485352 C 10.533744812011719 12.749811172485352 12.749893188476562 10.533628106117249 12.749893188476562 7.7996861934661865 C 12.749893188476562 5.065593242645264 10.533744812011719 2.8494101762771606 7.799980163574219 2.8494101762771606 Z"></path>
</symbol>
</defs>
</svg>
